[Header]
FileType HTR
DataType HTRS
FileVersion 1
NumSegments 28
NumFrames 4
DataFrameRate 24
EulerRotationOrder ZYX
CalibrationUnits mm
RotationUnits Degrees
GlobalAxisofGravity Y
BoneLengthAxis Y
ScaleFactor 1.0
[SegmentNames&Hierarchy]
waist	GLOBAL
chest	waist
head	chest
joint2	chest
right_shoulder1	joint2
right_elbow1	right_shoulder1
right_wrist1	right_elbow1
right_hand1	right_wrist1
right_finger3	right_hand1
right_finger4	right_hand1
right_finger5	right_hand1
joint3	chest
right_shoulder2	joint3
right_elbow2	right_shoulder2
right_wrist2	right_elbow2
right_hand2	right_wrist2
right_finger6	right_hand2
right_finger7	right_hand2
right_finger8	right_hand2
Center_pelvis	waist
left_pelvs	Center_pelvis
left_leg	left_pelvs
left_knee	left_leg
left_foot	left_knee
right_pelvis	Center_pelvis
right_leg	right_pelvis
right_knee	right_leg
right_foot	right_knee
[BasePosition]
waist	0	0	0	179.9999991	0	91.33221985	1
chest	0	0	0	-2.307808268e-010	-1.984983424e-008	1.332219854	1
head	0	0	0	180	-1.481061187e-024	90	1
joint2	0	0	0	4.615476202e-010	-1.707085745e-006	90	1
right_shoulder1	0	0	0	1.916575325e-008	-1.983803253e-008	-88.02506599	1
right_elbow1	0	0	0	-180	-1.948815659e-008	-12.92899665	1
right_wrist1	0	0	0	3.256551172e-010	1.942478841e-008	1.920938916	1
right_hand1	0	0	0	136.2194085	85.17676588	-133.4832578	1
right_finger3	0	0	0	154.4596717	79.84057755	147.6247455	1
right_finger4	0	0	0	154.4596717	79.84057755	147.6247455	1
right_finger5	0	0	0	154.4596717	79.84057755	147.6247455	1
joint3	0	0	0	-180	-1.89575832e-022	90	1
right_shoulder2	0	0	0	6.774897105e-015	-7.012540931e-015	-88.02506599	1
right_elbow2	0	0	0	-180	-6.888863384e-015	-12.92899665	1
right_wrist2	0	0	0	-1.240805042e-012	-7.401196581e-011	1.920938916	1
right_hand2	0	0	0	136.2194085	85.17676588	-133.4832578	1
right_finger6	0	0	0	154.4596717	79.84057755	147.6247455	1
right_finger7	0	0	0	154.4596717	79.84057755	147.6247455	1
right_finger8	0	0	0	154.4596717	79.84057755	147.6247455	1
Center_pelvis	0	0	0	-180	-8.537716493e-007	89.87586122	1
left_pelvs	0	0	0	0	0	-1.456358634	1
left_leg	0	0	0	179.9999991	0	88.69804733	1
left_knee	0	0	0	-180	-7.863991589e-009	-2.076172838	1
left_foot	0	0	0	179.9999985	-3.055580289e-010	-90.77422016	1
right_pelvis	0	0	0	0	0	-2.39554958	1
right_leg	0	0	0	0	0	-87.75885638	1
right_knee	0	0	0	179.9999991	3.702652968e-022	-2.076172838	1
right_foot	0	0	0	180	-7.405305937e-025	-90.77422016	1
[waist]
7	0	-3.152148962	0	1.955448151	-13.92348862	1.287571549	1.0
8	0	-3.152148962	0	1.920443773	-7.946336269	1.487169623	1.0
9	0	-3.152148962	0	1.886259317	-2.109176874	1.682092905	1.0
10	0	-3.152148962	0	1.853796124	3.434052706	1.867200851	1.0
[chest]
7	26.00589561	-0.2472970486	-4.335428715	-14.91026783	13.12957382	6.146407604	1.0
8	26.00589561	-0.2472970486	-4.335428715	2.080761671	13.07683372	9.122599602	1.0
9	26.00589561	-0.2472970486	-4.335428715	18.31263924	11.7091341	4.879765511	1.0
10	26.00589561	-0.2472970486	-4.335428715	44	13.23849297	0	1.0
[head]
7	20.62318993	0.1433748305	1.492195129	0	2.527660847	0	1.0
8	20.62318993	0.1433748305	1.492195129	0	0	0	1.0
9	20.62318993	0.1433748305	1.492195129	0	-9.901115417	0	1.0
10	20.62318993	0.1433748305	1.492195129	0	-19.80223083	0	1.0
[joint2]
7	-1.805602074	16.99716187	-0.6792843938	-50.75716782	26.80720901	20.24893379	1.0
8	-1.657010078	17.01290512	0.01287616603	-51.26533127	25.77396584	19.22827339	1.0
9	-2.157002449	17.080019	2.523158073	-48.22380829	-12.12589931	11.96789551	1.0
10	-1.657010078	17.01290512	0.01287616603	-42.41809845	-24.82219124	20.98564529	1.0
[right_shoulder1]
7	14.91590023	0.6211000085	0.9477797747	17.37338829	-20.62838936	-41.60161209	1.0
8	14.91590023	0.6211000085	0.9477797747	17.7946701	-20.31825829	-42.74839783	1.0
9	14.91590023	0.6211000085	0.9477797747	9.830853462	-13.78906918	-36.018013	1.0
10	14.91590023	0.6211000085	0.9477797747	3.489088058	-6.07222271	-29.9586277	1.0
[right_elbow1]
7	-13.64346027	1.083028078	-0.5017899871	-3.17402339	5.863259792	-28.51422501	1.0
8	-13.64346027	1.083028078	-0.5017899871	-2.965884686	6.006680012	-26.34057999	1.0
9	-13.64346027	1.083028078	-0.5017899871	-10.83114052	12.98349857	-40.41686249	1.0
10	-13.64346027	1.083028078	-0.5017899871	-19.67836571	18.8671608	-47.87925339	1.0
[right_wrist1]
7	-11.07325459	0.004849368241	0.6145500541	0	0	-27.01275635	1.0
8	-11.07325459	0.004849368241	0.6145500541	0	0	-27.40368271	1.0
9	-11.07325459	0.004849368241	0.6145500541	-2.389639139	8.15955162	-16.38474846	1.0
10	-11.07325459	0.004849368241	0.6145500541	-7.302114487	15.39382076	-25.7677803	1.0
[right_hand1]
7	-7.870647907	-0.6475095749	0.1588415354	1.413780451	-8.62234211	10.82726288	1.0
8	-7.870647907	-0.6475095749	0.1588415354	1.413780451	-8.62234211	10.82726288	1.0
9	-7.870647907	-0.6475095749	0.1588415354	1.016400933	-8.6171875	13.45696068	1.0
10	-7.870647907	-0.6475095749	0.1588415354	-0.11240834	-8.602544785	20.92696381	1.0
[right_finger3]
7	10.07661057	3.347557783	-1.489186764	-84.18126678	17.14625359	88.18149567	1.0
8	10.07661057	3.347557783	-1.489186764	-84.18126678	17.14625359	88.18149567	1.0
9	10.07661057	3.347557783	-1.489186764	-83.46227264	28.53342056	89.65682983	1.0
10	10.07661057	3.347557783	-1.489186764	-82.7432785	39.92058563	91.132164	1.0
[right_finger4]
7	-1.201135993	3.376283169	11.27149582	-189.7058258	16.58102226	126.37854	1.0
8	-1.201135993	3.376283169	11.27149582	-189.7058258	16.58102226	126.37854	1.0
9	-1.201135993	3.376283169	11.27149582	-193.5007324	12.45797348	109.3286133	1.0
10	-1.201135993	3.376283169	11.27149582	-197.295639	8.334923744	92.27868652	1.0
[right_finger5]
7	-6.853637218	4.493112087	-5.936321735	34.6031723	0.3458225429	84.84496307	1.0
8	-6.853637218	4.493112087	-5.936321735	34.6031723	0.3458225429	84.84496307	1.0
9	-6.853637218	4.493112087	-5.936321735	34.05105972	-4.4440341	91.90965271	1.0
10	-6.853637218	4.493112087	-5.936321735	33.49894714	-9.233890533	98.97434998	1.0
[joint3]
7	-1.523122907	-16.98217964	0.652826786	-37.88947296	-15.79119587	3.73639822	1.0
8	-1.657010078	-17.01289368	0.01287565939	-37.79403687	-14.11326599	3.727336645	1.0
9	-2.212055206	-16.55492401	2.809992313	-24.18632126	15.664505	-11.16776085	1.0
10	-1.657010078	-17.01289368	0.01287565939	-17.56450272	21.38908577	-13.89367867	1.0
[right_shoulder2]
7	-14.91590023	-0.6211000085	-0.9477797747	3.460169554	1238.333374	24.04520988	1.0
8	-14.91590023	-0.6211000085	-0.9477797747	3.358493805	1241.056396	23.84155083	1.0
9	-14.91590023	-0.6211000085	-0.9477797747	-7.8958745	1273.419678	31.12516403	1.0
10	-14.91590023	-0.6211000085	-0.9477797747	-19.15024185	1305.782959	38.40877914	1.0
[right_elbow2]
7	12.28493881	-0.8366748095	-3.382975817	5.781691074	-2.536818981	-16.85713005	1.0
8	12.28493881	-0.8366748095	-3.382975817	5.748020172	-0.394525826	-16.6348629	1.0
9	12.28493881	-0.8366748095	-3.382975817	5.947052002	14.84464645	-15.06638908	1.0
10	12.28493881	-0.8366748095	-3.382975817	5.748020172	-0.394525826	-16.6348629	1.0
[right_wrist2]
7	11.85136986	-0.2495054156	0.2257456481	0	7.792741299	0	1.0
8	11.85136986	-0.2495054156	0.2257456481	0	9.853892326	0	1.0
9	11.85136986	-0.2495054156	0.2257456481	0	9.709012985	0	1.0
10	11.85136986	-0.2495054156	0.2257456481	0	9.564133644	0	1.0
[right_hand2]
7	8.313048363	0.02588133886	-0.2132965624	23.24711609	21.19716072	-17.19311905	1.0
8	8.313048363	0.02588133886	-0.2132965624	23.24711609	21.19716072	-17.19311905	1.0
9	8.313048363	0.02588133886	-0.2132965624	4.470263958	23.95575142	-37.29948425	1.0
10	8.313048363	0.02588133886	-0.2132965624	1.272605658	21.19716072	-17.19311905	1.0
[right_finger6]
7	-10.07661057	-3.347557783	1.489186764	-79.74767303	-57.02344131	77.83287811	1.0
8	-10.07661057	-3.347557783	1.489186764	-79.74767303	-57.02344131	77.83287811	1.0
9	-10.07661057	-3.347557783	1.489186764	-77.36636353	-62.53248215	75.16181183	1.0
10	-10.07661057	-3.347557783	1.489186764	-74.98504639	-68.04151917	72.49074554	1.0
[right_finger7]
7	1.201135993	-3.376283169	-11.27149582	-173.5142365	18.05050659	177.4627991	1.0
8	1.201135993	-3.376283169	-11.27149582	-173.5142365	18.05050659	177.4627991	1.0
9	1.201135993	-3.376283169	-11.27149582	-178.9969482	18.34095383	160.4996643	1.0
10	1.201135993	-3.376283169	-11.27149582	-184.47966	18.63140297	143.5365295	1.0
[right_finger8]
7	6.853637218	-4.493112087	5.936321735	19.11196899	29.41272354	30.55272865	1.0
8	6.853637218	-4.493112087	5.936321735	19.11196899	29.41272354	30.55272865	1.0
9	6.853637218	-4.493112087	5.936321735	25.3514595	22.1666317	46.59054565	1.0
10	6.853637218	-4.493112087	5.936321735	31.5909481	14.92053986	62.62835693	1.0
[Center_pelvis]
7	-5.616972446	-0.3766000271	2.04698658	-5.551795959	0	0	1.0
8	-5.616972446	-0.3766000271	2.04698658	-12.20447826	0	0	1.0
9	-5.616972446	-0.3766000271	2.04698658	-17.57868004	0	0	1.0
10	-5.616972446	-0.3766000271	2.04698658	-21.40575409	0	0	1.0
[left_pelvs]
7	11.08986378	-0.01586683653	-0.09214995801	0.7086521983	-0.3210403621	-11.80261326	1.0
8	11.08986378	-0.01586683653	-0.09214995801	3.380443335	-0.2077959329	-7.639335632	1.0
9	11.08986378	-0.01586683653	-0.09214995801	5.538782597	-0.1163142473	-4.276135921	1.0
10	11.08986378	-0.01586683653	-0.09214995801	7.075777054	-0.05116839334	-1.881136656	1.0
[left_leg]
7	8.450808053e-008	-5.682914734	0.3641465604	0	22.32854462	-13.15992069	1.0
8	8.450808053e-008	-5.682914734	0.3641465604	0	31.90282822	-8.517863274	1.0
9	8.450808053e-008	-5.682914734	0.3641465604	0	39.63717651	-4.767893791	1.0
10	8.450808053e-008	-5.682914734	0.3641465604	0	45.14495468	-2.097468376	1.0
[left_knee]
7	-10.69747543	0.03457061574	-6.811455844e-009	0	-0.9713259339	0	1.0
8	-10.69747543	0.03457061574	-6.811455844e-009	0	-2.135259628	0	1.0
9	-10.69747543	0.03457061574	-6.811455844e-009	0	-3.075514317	0	1.0
10	-10.69747543	0.03457061574	-6.811455844e-009	0	-3.745087624	0	1.0
[left_foot]
7	-14.54718971	-0.01193539705	1.933258442e-009	2.626969337	0	0	1.0
8	-14.54718971	-0.01193539705	1.933258442e-009	5.774850368	0	0	1.0
9	-14.54718971	-0.01193539705	1.933258442e-009	8.317786217	0	0	1.0
10	-14.54718971	-0.01193539705	1.933258442e-009	10.1286602	0	0	1.0
[right_pelvis]
7	-10.5868988	0.4465443194	0.2088862956	6.815879345	-0.02872822993	-12.32725716	1.0
8	-10.5868988	0.4465443194	0.2088862956	0.8859751821	-0.01859457232	-7.978915691	1.0
9	-10.5868988	0.4465443194	0.2088862956	-3.904348373	-0.01040835585	-4.466216564	1.0
10	-10.5868988	0.4465443194	0.2088862956	-7.315630913	-0.004578792956	-1.964756131	1.0
[right_leg]
7	0.09169664979	-5.593489647	0.06310817599	0	0.6826603413	0	1.0
8	0.09169664979	-5.593489647	0.06310817599	0	-17.8390007	0	1.0
9	0.09169664979	-5.593489647	0.06310817599	0	-32.80125809	0	1.0
10	0.09169664979	-5.593489647	0.06310817599	0	-43.45616913	0	1.0
[right_knee]
7	10.69750977	-0.03459574655	-4.718447855e-015	26.40340805	-44.79108429	-11.81272507	1.0
8	10.69750977	-0.03459574655	-4.718447855e-015	30.16243744	-43.2732048	-9.679790497	1.0
9	10.69750977	-0.03459574655	-4.718447855e-015	33.19907379	-42.04702759	-7.956753731	1.0
10	10.69750977	-0.03459574655	-4.718447855e-015	35.36151886	-41.17383957	-6.729745388	1.0
[right_foot]
7	14.54718685	0.01191107463	1.774880243e-010	-22.23920822	18.62354851	-6.783704758	1.0
8	14.54718685	0.01191107463	1.774880243e-010	-18.13850784	23.31764603	-8.493549347	1.0
9	14.54718685	0.01191107463	1.774880243e-010	-14.82586002	27.10965347	-9.874804497	1.0
10	14.54718685	0.01191107463	1.774880243e-010	-12.46686172	29.81001663	-10.85842228	1.0
[EndOfFile]
